<svg width="174" height="37" viewBox="0 0 174 37" fill="none" xmlns="http://www.w3.org/2000/svg">
<path d="M62.8568 33.7436C62.8568 32.6397 62.2995 32.2218 61.2331 32.2218H59.3791V35.3083H61.2331C62.2995 35.3083 62.8568 34.8475 62.8568 33.7436ZM61.1206 28.9316H59.3791V31.5091H61.1742C62.1495 31.5091 62.5889 31.1233 62.5889 30.1962C62.5889 29.3281 62.0691 28.9316 61.1153 28.9316M63.9392 33.8722C63.9392 35.4155 63.0336 36.1818 61.3993 36.1818H58.2913V28.0635H61.2492C62.8032 28.0635 63.6713 28.7333 63.6713 29.9765C63.6713 31.0536 63.1515 31.7181 62.3745 31.8413C63.2105 31.9592 63.9392 32.5701 63.9392 33.8722Z" fill="white"/>
<path d="M72.6253 28.0581H71.5107V36.1764H72.6253V28.0581Z" fill="white"/>
<path d="M84.8538 33.2935L83.3802 29.2102L81.9066 33.2935H84.8538ZM85.1432 34.1026H81.6172L80.8617 36.1764H79.6453L82.8336 28.0581H83.9107L87.0991 36.1764H85.8934L85.1379 34.1026H85.1432Z" fill="white"/>
<path d="M94.1082 28.0581H95.2227V35.2869H99.2364V36.1818H94.1082V28.0581Z" fill="white"/>
<path d="M107.644 28.0581H106.53V36.1764H107.644V28.0581Z" fill="white"/>
<path d="M120.419 36.1818L116.893 32.4093V36.1818H115.778V28.0581H116.893V31.5734L120.21 28.0581H121.566L117.702 31.9913L121.775 36.1818H120.419Z" fill="white"/>
<path d="M0 12.9357V0.637695H4.65129V12.9357C4.65129 15.6794 5.73373 16.7029 8.11296 16.7029C10.4922 16.7029 11.5746 15.6794 11.5746 12.9357V0.637695H16.2259V12.9357C16.2259 17.9782 13.4287 20.1913 8.1076 20.1913C2.78648 20.1913 0 17.9782 0 12.9357Z" fill="white"/>
<path d="M30.4799 7.39492C30.4799 5.2086 29.6225 4.23869 27.1843 4.23869H25.5499V10.5565H27.1843C29.6225 10.5565 30.4799 9.61339 30.4799 7.40028M35.1312 7.39492C35.1312 12.1319 33.111 14.1789 28.4275 14.1789H25.5446V20.0252H20.8879V0.637695H28.4222C33.1056 0.637695 35.1258 2.68469 35.1258 7.39492" fill="white"/>
<path d="M52.4825 4.35122H47.5257V20.0306H42.8691V4.35122H37.9124V0.637695H52.4825V4.35122Z" fill="white"/>
<path d="M66.6184 12.4375V8.17202C66.6184 5.12296 65.4556 3.96014 63.071 3.96014C60.6864 3.96014 59.5236 5.12296 59.5236 8.17202V12.4375C59.5236 15.5401 60.7132 16.7029 63.071 16.7029C65.4288 16.7029 66.6184 15.5401 66.6184 12.4375ZM54.8723 11.9659V8.64358C54.8723 2.82412 57.4766 0.47168 63.071 0.47168C68.6654 0.47168 71.2697 2.82412 71.2697 8.64358V11.9659C71.2697 17.8122 68.6654 20.1914 63.071 20.1914C57.4766 20.1914 54.8723 17.8068 54.8723 11.9659Z" fill="white"/>
<path d="M102.28 0.637695L96.4605 20.0306H91.3377L87.7903 7.61998L84.2214 20.0306H79.0932L73.3059 0.637695H78.2626L81.6439 14.2915L85.7701 0.637695H89.789L93.942 14.2915L97.2965 0.637695H102.28Z" fill="white"/>
<path d="M121.844 0.637695V20.0306H116.11L109.605 6.17851V20.0306H105.254V0.637695H111.014L117.552 14.5433V0.637695H121.844Z" fill="white"/>
<path d="M144.045 7.11099V0.669922H145.733V6.89128C145.733 7.26103 145.872 7.34677 146.189 7.34677H146.591V8.58997H145.733C144.527 8.58997 144.045 8.33811 144.045 7.11099Z" fill="white"/>
<path d="M150.422 8.58997H148.745V2.78122H150.422V8.58997ZM148.745 0.669922H150.422V2.15962H148.745V0.669922Z" fill="white"/>
<path d="M152.405 2.78125H154.221L155.416 6.66625L156.611 2.78125H158.428L156.209 8.59H154.623L152.405 2.78125Z" fill="white"/>
<path d="M161.691 5.18714H163.626C163.583 4.28153 163.245 3.93322 162.656 3.93322C162.066 3.93322 161.766 4.29225 161.697 5.18714M165.314 6.17312H161.691C161.755 7.07337 162.061 7.4324 162.65 7.4324C163.208 7.4324 163.465 7.10552 163.545 6.72506H165.222C165.062 7.86645 164.242 8.65952 162.645 8.65952C160.893 8.65952 160.003 7.66818 160.003 5.70156C160.003 3.73495 160.893 2.72217 162.645 2.72217C164.397 2.72217 165.389 3.80997 165.303 6.17312" fill="white"/>
<path d="M152.662 15.6958L150.802 21.5045H149.104L148.059 17.8393L147.014 21.5045H145.31L143.445 15.6958H145.267L146.199 19.5754L147.276 15.6958H148.841L149.918 19.5754L150.834 15.6958H152.662Z" fill="white"/>
<path d="M158.01 18.6107C158.01 17.3622 157.683 16.8585 156.976 16.8585C156.268 16.8585 155.952 17.3622 155.952 18.6107C155.952 19.8593 156.279 20.3416 156.976 20.3416C157.672 20.3416 158.01 19.8325 158.01 18.6107ZM154.27 18.6107C154.27 16.6227 155.18 15.6313 156.97 15.6313C158.76 15.6313 159.692 16.6227 159.692 18.6107C159.692 20.5988 158.776 21.5687 156.97 21.5687C155.164 21.5687 154.27 20.5774 154.27 18.6107Z" fill="white"/>
<path d="M162.029 15.6958H163.615V16.8801L163.647 16.8908C163.899 16.1942 164.344 15.6958 165.528 15.6958H165.716V17.282H165.528C164.44 17.282 163.711 17.5552 163.711 18.9271V21.5045H162.034V15.6958H162.029Z" fill="white"/>
<path d="M171.321 21.5045L169.611 18.8681V21.5045H167.934V13.5845H169.611V17.8071L171.122 15.6958H172.982L170.951 18.3054L173.18 21.5045H171.321Z" fill="white"/>
<path d="M147.909 31.1821C147.909 29.9871 147.56 29.4084 146.778 29.4084C145.996 29.4084 145.658 29.9871 145.658 31.1821C145.658 32.3771 145.996 32.9558 146.778 32.9558C147.56 32.9558 147.909 32.3771 147.909 31.1821ZM149.591 31.1821C149.591 33.1166 148.82 34.1293 147.185 34.1293C146.617 34.1293 146.087 33.9525 145.728 33.6203V36.1978H144.051V28.2777H145.728V28.7654C146.076 28.4278 146.607 28.2349 147.185 28.2349C148.825 28.2349 149.591 29.2476 149.591 31.1821Z" fill="white"/>
<path d="M151.89 32.6076V26.1665H153.578V32.3879C153.578 32.7576 153.717 32.8433 154.034 32.8433H154.435V34.0919H153.578C152.372 34.0919 151.89 33.8401 151.89 32.6129" fill="white"/>
<path d="M159.349 31.8144V31.2142C158.053 31.3535 157.731 31.8144 157.731 32.2699C157.731 32.6289 157.962 32.8379 158.396 32.8379C158.953 32.8379 159.344 32.511 159.344 31.8144M160.973 30.4747V34.0864H159.349V33.5774C158.948 33.9686 158.369 34.1347 157.71 34.1347C156.751 34.1347 156.145 33.5345 156.145 32.5592C156.145 31.3428 156.884 30.4372 159.333 30.1425C159.28 29.5745 159.092 29.4352 158.583 29.4352C158.026 29.4459 157.265 29.5798 156.681 29.7084L156.44 28.5456C157.115 28.3849 158.117 28.2188 158.846 28.2188C160.448 28.2188 160.968 28.7868 160.968 30.4694" fill="white"/>
<path d="M168.652 28.2773L165.555 36.1974H163.985L164.944 33.8289L162.768 28.2773H164.521L165.716 31.7712L166.98 28.2773H168.652Z" fill="white"/>
<path d="M133.199 0.600586H132.717V36.1765H133.199V0.600586Z" fill="white"/>
</svg>
