<svg width="395" height="85" viewBox="0 0 395 85" fill="none" xmlns="http://www.w3.org/2000/svg">
<g filter="url(#filter0_d_322_1697)">
<path d="M385.259 69.6096V53.6338H390.212V75.9999H383.566L376.089 60.088V75.9999H371.073V53.6338H377.751L385.259 69.6096Z" fill="white"/>
</g>
<g filter="url(#filter1_d_322_1697)">
<path d="M357.32 69.2901L361.059 53.6338H366.81L360.452 75.9999H354.477L350.61 61.7176L346.744 75.9999H340.769L334.443 53.6338H340.194L343.933 69.2901L348.214 53.6338H353.039L357.32 69.2901Z" fill="white"/>
</g>
<g filter="url(#filter2_d_322_1697)">
<path d="M321.802 76.1917C315.188 76.1917 312.185 73.4439 312.185 66.7021V62.8679C312.185 56.158 315.188 53.4421 321.802 53.4421C328.384 53.4421 331.388 56.158 331.388 62.8679V66.7021C331.388 73.4439 328.384 76.1917 321.802 76.1917ZM321.802 72.1658C324.646 72.1658 326.02 70.8238 326.02 67.2452V62.3247C326.02 58.81 324.646 57.468 321.802 57.468C318.958 57.468 317.552 58.81 317.552 62.3247V67.2452C317.552 70.8238 318.958 72.1658 321.802 72.1658Z" fill="white"/>
</g>
<g filter="url(#filter3_d_322_1697)">
<path d="M308.571 53.6338V57.9153H302.404V75.9999H297.036V57.9153H290.869V53.6338H308.571Z" fill="white"/>
</g>
<g filter="url(#filter4_d_322_1697)">
<path d="M279.174 53.6338C284.701 53.6338 287.098 56.158 287.098 61.6537C287.098 67.1493 284.701 69.6416 279.174 69.6416H275.276L275.244 75.9999H269.876V53.6338H279.174ZM275.307 65.4879H277.991C280.771 65.4879 281.73 64.2737 281.73 61.6537C281.73 59.0017 280.771 57.7875 277.991 57.7875H275.339L275.307 65.4879Z" fill="white"/>
</g>
<g filter="url(#filter5_d_322_1697)">
<path d="M254.393 76.1917C248.355 76.1917 245.127 73.6355 245.127 67.8203V53.6338H250.495V67.8203C250.495 70.9835 251.741 72.1657 254.393 72.1657C257.013 72.1657 258.26 70.9835 258.26 67.8203V53.6338H263.627V67.8203C263.627 73.6355 260.432 76.1917 254.393 76.1917Z" fill="white"/>
</g>
<g filter="url(#filter6_d_322_1697)">
<path d="M218.924 76.1917C212.853 76.1917 209.945 73.4119 209.945 66.9577V62.6123C209.945 56.19 212.853 53.4421 218.924 53.4421C225.027 53.4421 227.902 56.19 227.902 62.6123V66.9577C227.902 73.4119 225.027 76.1917 218.924 76.1917ZM218.924 73.8592C222.886 73.8592 224.835 71.9102 224.835 67.2452V62.3247C224.835 57.7237 222.886 55.7746 218.924 55.7746C214.994 55.7746 213.013 57.7237 213.013 62.3247V67.2452C213.013 71.9102 214.994 73.8592 218.924 73.8592Z" fill="white"/>
</g>
<g filter="url(#filter7_d_322_1697)">
<path d="M206.155 53.6338V56.0941H199.19V75.9999H196.122V56.0941H189.125V53.6338H206.155Z" fill="white"/>
</g>
<g filter="url(#filter8_d_322_1697)">
<path d="M161.094 65.4879V73.5397H173.395V75.9999H158.026V53.6338H173.139V56.0941H161.094V63.0915H171.893V65.4879H161.094Z" fill="white"/>
</g>
<g filter="url(#filter9_d_322_1697)">
<path d="M139.278 68.4274L146.435 53.6338H150.557V75.9999H147.649V57.3721L140.524 71.7823H138L130.874 57.3721V75.9999H127.967V53.6338H132.089L139.278 68.4274Z" fill="white"/>
</g>
<g filter="url(#filter10_d_322_1697)">
<path d="M112.527 76.1917C106.456 76.1917 103.548 73.4119 103.548 66.9577V62.6123C103.548 56.19 106.456 53.4421 112.527 53.4421C118.629 53.4421 121.505 56.19 121.505 62.6123V66.9577C121.505 73.4119 118.629 76.1917 112.527 76.1917ZM112.527 73.8592C116.489 73.8592 118.438 71.9102 118.438 67.2452V62.3247C118.438 57.7237 116.489 55.7746 112.527 55.7746C108.596 55.7746 106.615 57.7237 106.615 62.3247V67.2452C106.615 71.9102 108.596 73.8592 112.527 73.8592Z" fill="white"/>
</g>
<g filter="url(#filter11_d_322_1697)">
<path d="M89.0151 76.1598C82.9443 76.1598 80.1006 73.4119 80.1006 66.9577V62.6123C80.1006 56.19 82.9443 53.4421 89.0151 53.4421C95.054 53.4421 97.8976 56.19 97.8976 61.6218H94.8303C94.8303 57.7237 92.9132 55.7746 89.0151 55.7746C85.0851 55.7746 83.168 57.7237 83.168 62.3247V67.2452C83.168 71.9102 85.0851 73.8592 89.0151 73.8592C92.9132 73.8592 94.8303 71.9102 94.8303 67.9482H97.8976C97.8976 73.4119 95.054 76.1598 89.0151 76.1598Z" fill="white"/>
</g>
<g filter="url(#filter12_d_322_1697)">
<path d="M76.7248 75.9999H61.7075V53.6338H64.7748V73.5397H76.7248V75.9999Z" fill="white"/>
</g>
<g filter="url(#filter13_d_322_1697)">
<path d="M43.0978 65.4879V73.5397H55.3992V75.9999H40.0305V53.6338H55.1436V56.0941H43.0978V63.0915H53.8975V65.4879H43.0978Z" fill="white"/>
</g>
<g filter="url(#filter14_d_322_1697)">
<path d="M26.2911 72.1977L31.4353 53.6338H34.6944L28.0485 75.9999H24.6935L19.4854 58.2348L14.2773 75.9999H10.8904L4.30835 53.6338H7.56744L12.6797 72.1977L18.1115 53.6338H20.8913L26.2911 72.1977Z" fill="white"/>
</g>
<g filter="url(#filter15_d_322_1697)">
<path d="M296.004 4.45605C299.59 4.45605 301.455 6.67367 301.206 11.254H294.015C294.16 13.0985 294.823 13.7825 295.963 13.7825C297.124 13.7825 297.683 13.1607 297.849 12.3317H301.103C300.771 14.57 299.134 16.1659 296.004 16.1659C292.481 16.1659 290.636 14.1763 290.636 10.3213C290.636 6.42497 292.543 4.45605 296.004 4.45605ZM295.963 6.8602C294.864 6.8602 294.201 7.52341 294.015 9.28507H297.911C297.807 7.54414 297.124 6.8602 295.963 6.8602Z" fill="white"/>
</g>
<g filter="url(#filter16_d_322_1697)">
<path d="M287.005 2.56985C286.259 2.56985 286.031 2.90146 286.031 3.83411V4.60094H288V6.88074H286.031V15.9999H282.715V6.88074H281.388V4.60094H282.715V3.79266C282.715 1.47141 283.606 0.310791 285.886 0.310791C286.736 0.310791 287.751 0.435141 288.559 0.600945L288.249 2.71494C287.855 2.65276 287.42 2.56985 287.005 2.56985Z" fill="white"/>
</g>
<g filter="url(#filter17_d_322_1697)">
<path d="M277.775 0.870361V3.44031H274.458V0.870361H277.775ZM274.458 4.60093H277.775V15.9999H274.458V4.60093Z" fill="white"/>
</g>
<g filter="url(#filter18_d_322_1697)">
<path d="M270.845 16.0001H269.146C266.783 16.0001 265.851 15.5027 265.851 13.0985V0.456055H269.167V12.6633C269.167 13.3887 269.415 13.5545 270.037 13.5545H270.845V16.0001Z" fill="white"/>
</g>
<g filter="url(#filter19_d_322_1697)">
<path d="M250.973 16H247.657V4.60107H250.787V6.92232L250.828 6.94304C251.346 5.57517 252.196 4.60107 254.517 4.60107H254.89V7.70988H254.517C252.383 7.70988 250.973 8.24874 250.973 10.943V16Z" fill="white"/>
</g>
<g filter="url(#filter20_d_322_1697)">
<path d="M239.971 11.3576V4.60107H243.287V16H239.971V15.2125C239.266 15.8135 238.292 16.1244 237.111 16.1244C234.085 16.1244 232.758 14.57 232.758 11.5648V4.60107H236.074V11.5234C236.074 12.9741 236.738 13.6788 238.023 13.6788C239.328 13.6788 239.971 12.912 239.971 11.3576Z" fill="white"/>
</g>
<g filter="url(#filter21_d_322_1697)">
<path d="M223.363 16.1659C219.653 16.1659 217.85 14.1763 217.85 10.3213C217.85 6.42497 219.653 4.45605 223.363 4.45605C227.073 4.45605 228.876 6.42497 228.876 10.3213C228.876 14.1763 227.073 16.1659 223.363 16.1659ZM223.363 13.7825C224.897 13.7825 225.56 12.684 225.56 10.3006C225.56 7.91719 224.897 6.81875 223.363 6.81875C221.809 6.81875 221.145 7.91719 221.145 10.3006C221.145 12.684 221.809 13.7825 223.363 13.7825Z" fill="white"/>
</g>
<g filter="url(#filter22_d_322_1697)">
<path d="M209.992 11.4197L212.583 4.60107H215.857L209.619 20.1451H206.531L208.396 15.4612L204.313 4.60107H207.754L209.992 11.4197Z" fill="white"/>
</g>
<g filter="url(#filter23_d_322_1697)">
<path d="M188.849 1.49219C192.435 1.49219 193.989 3.1295 193.989 6.69426C193.989 10.259 192.435 11.8756 188.849 11.8756H186.321L186.3 16H182.818V1.49219H188.849ZM186.342 9.18131H188.083C189.886 9.18131 190.507 8.39375 190.507 6.69426C190.507 4.97406 189.886 4.18649 188.083 4.18649H186.362L186.342 9.18131Z" fill="white"/>
</g>
<g filter="url(#filter24_d_322_1697)">
<path d="M172.13 16.1243C168.212 16.1243 166.119 14.4663 166.119 10.6943V1.49219H169.601V10.6943C169.601 12.7461 170.409 13.5129 172.13 13.5129C173.829 13.5129 174.637 12.7461 174.637 10.6943V1.49219H178.119V10.6943C178.119 14.4663 176.047 16.1243 172.13 16.1243Z" fill="white"/>
</g>
<g filter="url(#filter25_d_322_1697)">
<path d="M154.664 16.0001H152.965C150.602 16.0001 149.669 15.5027 149.669 13.0985V0.456055H152.986V12.6633C152.986 13.3887 153.234 13.5545 153.856 13.5545H154.664V16.0001Z" fill="white"/>
</g>
<g filter="url(#filter26_d_322_1697)">
<path d="M140.612 4.45605C144.197 4.45605 146.062 6.67367 145.814 11.254H138.622C138.767 13.0985 139.43 13.7825 140.57 13.7825C141.731 13.7825 142.29 13.1607 142.456 12.3317H145.71C145.378 14.57 143.741 16.1659 140.612 16.1659C137.088 16.1659 135.244 14.1763 135.244 10.3213C135.244 6.42497 137.15 4.45605 140.612 4.45605ZM140.57 6.8602C139.472 6.8602 138.808 7.52341 138.622 9.28507H142.518C142.415 7.54414 141.731 6.8602 140.57 6.8602Z" fill="white"/>
</g>
<g filter="url(#filter27_d_322_1697)">
<path d="M128.865 16H125.735L121.404 4.60107H124.969L127.29 12.228L129.632 4.60107H133.197L128.865 16Z" fill="white"/>
</g>
<g filter="url(#filter28_d_322_1697)">
<path d="M113.893 4.45605C117.478 4.45605 119.343 6.67367 119.095 11.254H111.903C112.048 13.0985 112.711 13.7825 113.851 13.7825C115.012 13.7825 115.571 13.1607 115.737 12.3317H118.991C118.659 14.57 117.022 16.1659 113.893 16.1659C110.369 16.1659 108.525 14.1763 108.525 10.3213C108.525 6.42497 110.431 4.45605 113.893 4.45605ZM113.851 6.8602C112.753 6.8602 112.089 7.52341 111.903 9.28507H115.799C115.696 7.54414 115.012 6.8602 113.851 6.8602Z" fill="white"/>
</g>
<g filter="url(#filter29_d_322_1697)">
<path d="M106.042 16H95.4307V1.49219H98.9125V13.2228H106.042V16Z" fill="white"/>
</g>
<defs>
<filter id="filter0_d_322_1697" x="367.073" y="53.6338" width="27.1392" height="30.3661" filterUnits="userSpaceOnUse" color-interpolation-filters="sRGB">
<feFlood flood-opacity="0" result="BackgroundImageFix"/>
<feColorMatrix in="SourceAlpha" type="matrix" values="0 0 0 0 0 0 0 0 0 0 0 0 0 0 0 0 0 0 127 0" result="hardAlpha"/>
<feOffset dy="4"/>
<feGaussianBlur stdDeviation="2"/>
<feComposite in2="hardAlpha" operator="out"/>
<feColorMatrix type="matrix" values="0 0 0 0 0 0 0 0 0 0 0 0 0 0 0 0 0 0 0.25 0"/>
<feBlend mode="normal" in2="BackgroundImageFix" result="effect1_dropShadow_322_1697"/>
<feBlend mode="normal" in="SourceGraphic" in2="effect1_dropShadow_322_1697" result="shape"/>
</filter>
<filter id="filter1_d_322_1697" x="330.443" y="53.6338" width="40.3672" height="30.3661" filterUnits="userSpaceOnUse" color-interpolation-filters="sRGB">
<feFlood flood-opacity="0" result="BackgroundImageFix"/>
<feColorMatrix in="SourceAlpha" type="matrix" values="0 0 0 0 0 0 0 0 0 0 0 0 0 0 0 0 0 0 127 0" result="hardAlpha"/>
<feOffset dy="4"/>
<feGaussianBlur stdDeviation="2"/>
<feComposite in2="hardAlpha" operator="out"/>
<feColorMatrix type="matrix" values="0 0 0 0 0 0 0 0 0 0 0 0 0 0 0 0 0 0 0.25 0"/>
<feBlend mode="normal" in2="BackgroundImageFix" result="effect1_dropShadow_322_1697"/>
<feBlend mode="normal" in="SourceGraphic" in2="effect1_dropShadow_322_1697" result="shape"/>
</filter>
<filter id="filter2_d_322_1697" x="308.185" y="53.4421" width="27.2029" height="30.7496" filterUnits="userSpaceOnUse" color-interpolation-filters="sRGB">
<feFlood flood-opacity="0" result="BackgroundImageFix"/>
<feColorMatrix in="SourceAlpha" type="matrix" values="0 0 0 0 0 0 0 0 0 0 0 0 0 0 0 0 0 0 127 0" result="hardAlpha"/>
<feOffset dy="4"/>
<feGaussianBlur stdDeviation="2"/>
<feComposite in2="hardAlpha" operator="out"/>
<feColorMatrix type="matrix" values="0 0 0 0 0 0 0 0 0 0 0 0 0 0 0 0 0 0 0.25 0"/>
<feBlend mode="normal" in2="BackgroundImageFix" result="effect1_dropShadow_322_1697"/>
<feBlend mode="normal" in="SourceGraphic" in2="effect1_dropShadow_322_1697" result="shape"/>
</filter>
<filter id="filter3_d_322_1697" x="286.869" y="53.6338" width="25.7012" height="30.3661" filterUnits="userSpaceOnUse" color-interpolation-filters="sRGB">
<feFlood flood-opacity="0" result="BackgroundImageFix"/>
<feColorMatrix in="SourceAlpha" type="matrix" values="0 0 0 0 0 0 0 0 0 0 0 0 0 0 0 0 0 0 127 0" result="hardAlpha"/>
<feOffset dy="4"/>
<feGaussianBlur stdDeviation="2"/>
<feComposite in2="hardAlpha" operator="out"/>
<feColorMatrix type="matrix" values="0 0 0 0 0 0 0 0 0 0 0 0 0 0 0 0 0 0 0.25 0"/>
<feBlend mode="normal" in2="BackgroundImageFix" result="effect1_dropShadow_322_1697"/>
<feBlend mode="normal" in="SourceGraphic" in2="effect1_dropShadow_322_1697" result="shape"/>
</filter>
<filter id="filter4_d_322_1697" x="265.876" y="53.6338" width="25.2219" height="30.3661" filterUnits="userSpaceOnUse" color-interpolation-filters="sRGB">
<feFlood flood-opacity="0" result="BackgroundImageFix"/>
<feColorMatrix in="SourceAlpha" type="matrix" values="0 0 0 0 0 0 0 0 0 0 0 0 0 0 0 0 0 0 127 0" result="hardAlpha"/>
<feOffset dy="4"/>
<feGaussianBlur stdDeviation="2"/>
<feComposite in2="hardAlpha" operator="out"/>
<feColorMatrix type="matrix" values="0 0 0 0 0 0 0 0 0 0 0 0 0 0 0 0 0 0 0.25 0"/>
<feBlend mode="normal" in2="BackgroundImageFix" result="effect1_dropShadow_322_1697"/>
<feBlend mode="normal" in="SourceGraphic" in2="effect1_dropShadow_322_1697" result="shape"/>
</filter>
<filter id="filter5_d_322_1697" x="241.127" y="53.6338" width="26.5" height="30.5579" filterUnits="userSpaceOnUse" color-interpolation-filters="sRGB">
<feFlood flood-opacity="0" result="BackgroundImageFix"/>
<feColorMatrix in="SourceAlpha" type="matrix" values="0 0 0 0 0 0 0 0 0 0 0 0 0 0 0 0 0 0 127 0" result="hardAlpha"/>
<feOffset dy="4"/>
<feGaussianBlur stdDeviation="2"/>
<feComposite in2="hardAlpha" operator="out"/>
<feColorMatrix type="matrix" values="0 0 0 0 0 0 0 0 0 0 0 0 0 0 0 0 0 0 0.25 0"/>
<feBlend mode="normal" in2="BackgroundImageFix" result="effect1_dropShadow_322_1697"/>
<feBlend mode="normal" in="SourceGraphic" in2="effect1_dropShadow_322_1697" result="shape"/>
</filter>
<filter id="filter6_d_322_1697" x="205.945" y="53.4421" width="25.9568" height="30.7496" filterUnits="userSpaceOnUse" color-interpolation-filters="sRGB">
<feFlood flood-opacity="0" result="BackgroundImageFix"/>
<feColorMatrix in="SourceAlpha" type="matrix" values="0 0 0 0 0 0 0 0 0 0 0 0 0 0 0 0 0 0 127 0" result="hardAlpha"/>
<feOffset dy="4"/>
<feGaussianBlur stdDeviation="2"/>
<feComposite in2="hardAlpha" operator="out"/>
<feColorMatrix type="matrix" values="0 0 0 0 0 0 0 0 0 0 0 0 0 0 0 0 0 0 0.25 0"/>
<feBlend mode="normal" in2="BackgroundImageFix" result="effect1_dropShadow_322_1697"/>
<feBlend mode="normal" in="SourceGraphic" in2="effect1_dropShadow_322_1697" result="shape"/>
</filter>
<filter id="filter7_d_322_1697" x="185.125" y="53.6338" width="25.0303" height="30.3661" filterUnits="userSpaceOnUse" color-interpolation-filters="sRGB">
<feFlood flood-opacity="0" result="BackgroundImageFix"/>
<feColorMatrix in="SourceAlpha" type="matrix" values="0 0 0 0 0 0 0 0 0 0 0 0 0 0 0 0 0 0 127 0" result="hardAlpha"/>
<feOffset dy="4"/>
<feGaussianBlur stdDeviation="2"/>
<feComposite in2="hardAlpha" operator="out"/>
<feColorMatrix type="matrix" values="0 0 0 0 0 0 0 0 0 0 0 0 0 0 0 0 0 0 0.25 0"/>
<feBlend mode="normal" in2="BackgroundImageFix" result="effect1_dropShadow_322_1697"/>
<feBlend mode="normal" in="SourceGraphic" in2="effect1_dropShadow_322_1697" result="shape"/>
</filter>
<filter id="filter8_d_322_1697" x="154.026" y="53.6338" width="23.3687" height="30.3661" filterUnits="userSpaceOnUse" color-interpolation-filters="sRGB">
<feFlood flood-opacity="0" result="BackgroundImageFix"/>
<feColorMatrix in="SourceAlpha" type="matrix" values="0 0 0 0 0 0 0 0 0 0 0 0 0 0 0 0 0 0 127 0" result="hardAlpha"/>
<feOffset dy="4"/>
<feGaussianBlur stdDeviation="2"/>
<feComposite in2="hardAlpha" operator="out"/>
<feColorMatrix type="matrix" values="0 0 0 0 0 0 0 0 0 0 0 0 0 0 0 0 0 0 0.25 0"/>
<feBlend mode="normal" in2="BackgroundImageFix" result="effect1_dropShadow_322_1697"/>
<feBlend mode="normal" in="SourceGraphic" in2="effect1_dropShadow_322_1697" result="shape"/>
</filter>
<filter id="filter9_d_322_1697" x="123.967" y="53.6338" width="30.5898" height="30.3661" filterUnits="userSpaceOnUse" color-interpolation-filters="sRGB">
<feFlood flood-opacity="0" result="BackgroundImageFix"/>
<feColorMatrix in="SourceAlpha" type="matrix" values="0 0 0 0 0 0 0 0 0 0 0 0 0 0 0 0 0 0 127 0" result="hardAlpha"/>
<feOffset dy="4"/>
<feGaussianBlur stdDeviation="2"/>
<feComposite in2="hardAlpha" operator="out"/>
<feColorMatrix type="matrix" values="0 0 0 0 0 0 0 0 0 0 0 0 0 0 0 0 0 0 0.25 0"/>
<feBlend mode="normal" in2="BackgroundImageFix" result="effect1_dropShadow_322_1697"/>
<feBlend mode="normal" in="SourceGraphic" in2="effect1_dropShadow_322_1697" result="shape"/>
</filter>
<filter id="filter10_d_322_1697" x="99.5481" y="53.4421" width="25.9568" height="30.7496" filterUnits="userSpaceOnUse" color-interpolation-filters="sRGB">
<feFlood flood-opacity="0" result="BackgroundImageFix"/>
<feColorMatrix in="SourceAlpha" type="matrix" values="0 0 0 0 0 0 0 0 0 0 0 0 0 0 0 0 0 0 127 0" result="hardAlpha"/>
<feOffset dy="4"/>
<feGaussianBlur stdDeviation="2"/>
<feComposite in2="hardAlpha" operator="out"/>
<feColorMatrix type="matrix" values="0 0 0 0 0 0 0 0 0 0 0 0 0 0 0 0 0 0 0.25 0"/>
<feBlend mode="normal" in2="BackgroundImageFix" result="effect1_dropShadow_322_1697"/>
<feBlend mode="normal" in="SourceGraphic" in2="effect1_dropShadow_322_1697" result="shape"/>
</filter>
<filter id="filter11_d_322_1697" x="76.1006" y="53.4421" width="25.7971" height="30.7176" filterUnits="userSpaceOnUse" color-interpolation-filters="sRGB">
<feFlood flood-opacity="0" result="BackgroundImageFix"/>
<feColorMatrix in="SourceAlpha" type="matrix" values="0 0 0 0 0 0 0 0 0 0 0 0 0 0 0 0 0 0 127 0" result="hardAlpha"/>
<feOffset dy="4"/>
<feGaussianBlur stdDeviation="2"/>
<feComposite in2="hardAlpha" operator="out"/>
<feColorMatrix type="matrix" values="0 0 0 0 0 0 0 0 0 0 0 0 0 0 0 0 0 0 0.25 0"/>
<feBlend mode="normal" in2="BackgroundImageFix" result="effect1_dropShadow_322_1697"/>
<feBlend mode="normal" in="SourceGraphic" in2="effect1_dropShadow_322_1697" result="shape"/>
</filter>
<filter id="filter12_d_322_1697" x="57.7075" y="53.6338" width="23.0173" height="30.3661" filterUnits="userSpaceOnUse" color-interpolation-filters="sRGB">
<feFlood flood-opacity="0" result="BackgroundImageFix"/>
<feColorMatrix in="SourceAlpha" type="matrix" values="0 0 0 0 0 0 0 0 0 0 0 0 0 0 0 0 0 0 127 0" result="hardAlpha"/>
<feOffset dy="4"/>
<feGaussianBlur stdDeviation="2"/>
<feComposite in2="hardAlpha" operator="out"/>
<feColorMatrix type="matrix" values="0 0 0 0 0 0 0 0 0 0 0 0 0 0 0 0 0 0 0.25 0"/>
<feBlend mode="normal" in2="BackgroundImageFix" result="effect1_dropShadow_322_1697"/>
<feBlend mode="normal" in="SourceGraphic" in2="effect1_dropShadow_322_1697" result="shape"/>
</filter>
<filter id="filter13_d_322_1697" x="36.0305" y="53.6338" width="23.3687" height="30.3661" filterUnits="userSpaceOnUse" color-interpolation-filters="sRGB">
<feFlood flood-opacity="0" result="BackgroundImageFix"/>
<feColorMatrix in="SourceAlpha" type="matrix" values="0 0 0 0 0 0 0 0 0 0 0 0 0 0 0 0 0 0 127 0" result="hardAlpha"/>
<feOffset dy="4"/>
<feGaussianBlur stdDeviation="2"/>
<feComposite in2="hardAlpha" operator="out"/>
<feColorMatrix type="matrix" values="0 0 0 0 0 0 0 0 0 0 0 0 0 0 0 0 0 0 0.25 0"/>
<feBlend mode="normal" in2="BackgroundImageFix" result="effect1_dropShadow_322_1697"/>
<feBlend mode="normal" in="SourceGraphic" in2="effect1_dropShadow_322_1697" result="shape"/>
</filter>
<filter id="filter14_d_322_1697" x="0.30835" y="53.6338" width="38.386" height="30.3661" filterUnits="userSpaceOnUse" color-interpolation-filters="sRGB">
<feFlood flood-opacity="0" result="BackgroundImageFix"/>
<feColorMatrix in="SourceAlpha" type="matrix" values="0 0 0 0 0 0 0 0 0 0 0 0 0 0 0 0 0 0 127 0" result="hardAlpha"/>
<feOffset dy="4"/>
<feGaussianBlur stdDeviation="2"/>
<feComposite in2="hardAlpha" operator="out"/>
<feColorMatrix type="matrix" values="0 0 0 0 0 0 0 0 0 0 0 0 0 0 0 0 0 0 0.25 0"/>
<feBlend mode="normal" in2="BackgroundImageFix" result="effect1_dropShadow_322_1697"/>
<feBlend mode="normal" in="SourceGraphic" in2="effect1_dropShadow_322_1697" result="shape"/>
</filter>
<filter id="filter15_d_322_1697" x="286.636" y="4.45605" width="18.592" height="19.7098" filterUnits="userSpaceOnUse" color-interpolation-filters="sRGB">
<feFlood flood-opacity="0" result="BackgroundImageFix"/>
<feColorMatrix in="SourceAlpha" type="matrix" values="0 0 0 0 0 0 0 0 0 0 0 0 0 0 0 0 0 0 127 0" result="hardAlpha"/>
<feOffset dy="4"/>
<feGaussianBlur stdDeviation="2"/>
<feComposite in2="hardAlpha" operator="out"/>
<feColorMatrix type="matrix" values="0 0 0 0 0 0 0 0 0 0 0 0 0 0 0 0 0 0 0.25 0"/>
<feBlend mode="normal" in2="BackgroundImageFix" result="effect1_dropShadow_322_1697"/>
<feBlend mode="normal" in="SourceGraphic" in2="effect1_dropShadow_322_1697" result="shape"/>
</filter>
<filter id="filter16_d_322_1697" x="277.388" y="0.310791" width="15.1711" height="23.6891" filterUnits="userSpaceOnUse" color-interpolation-filters="sRGB">
<feFlood flood-opacity="0" result="BackgroundImageFix"/>
<feColorMatrix in="SourceAlpha" type="matrix" values="0 0 0 0 0 0 0 0 0 0 0 0 0 0 0 0 0 0 127 0" result="hardAlpha"/>
<feOffset dy="4"/>
<feGaussianBlur stdDeviation="2"/>
<feComposite in2="hardAlpha" operator="out"/>
<feColorMatrix type="matrix" values="0 0 0 0 0 0 0 0 0 0 0 0 0 0 0 0 0 0 0.25 0"/>
<feBlend mode="normal" in2="BackgroundImageFix" result="effect1_dropShadow_322_1697"/>
<feBlend mode="normal" in="SourceGraphic" in2="effect1_dropShadow_322_1697" result="shape"/>
</filter>
<filter id="filter17_d_322_1697" x="270.458" y="0.870361" width="11.3162" height="23.1295" filterUnits="userSpaceOnUse" color-interpolation-filters="sRGB">
<feFlood flood-opacity="0" result="BackgroundImageFix"/>
<feColorMatrix in="SourceAlpha" type="matrix" values="0 0 0 0 0 0 0 0 0 0 0 0 0 0 0 0 0 0 127 0" result="hardAlpha"/>
<feOffset dy="4"/>
<feGaussianBlur stdDeviation="2"/>
<feComposite in2="hardAlpha" operator="out"/>
<feColorMatrix type="matrix" values="0 0 0 0 0 0 0 0 0 0 0 0 0 0 0 0 0 0 0.25 0"/>
<feBlend mode="normal" in2="BackgroundImageFix" result="effect1_dropShadow_322_1697"/>
<feBlend mode="normal" in="SourceGraphic" in2="effect1_dropShadow_322_1697" result="shape"/>
</filter>
<filter id="filter18_d_322_1697" x="261.851" y="0.456055" width="12.9949" height="23.5441" filterUnits="userSpaceOnUse" color-interpolation-filters="sRGB">
<feFlood flood-opacity="0" result="BackgroundImageFix"/>
<feColorMatrix in="SourceAlpha" type="matrix" values="0 0 0 0 0 0 0 0 0 0 0 0 0 0 0 0 0 0 127 0" result="hardAlpha"/>
<feOffset dy="4"/>
<feGaussianBlur stdDeviation="2"/>
<feComposite in2="hardAlpha" operator="out"/>
<feColorMatrix type="matrix" values="0 0 0 0 0 0 0 0 0 0 0 0 0 0 0 0 0 0 0.25 0"/>
<feBlend mode="normal" in2="BackgroundImageFix" result="effect1_dropShadow_322_1697"/>
<feBlend mode="normal" in="SourceGraphic" in2="effect1_dropShadow_322_1697" result="shape"/>
</filter>
<filter id="filter19_d_322_1697" x="243.657" y="4.60107" width="15.2332" height="19.399" filterUnits="userSpaceOnUse" color-interpolation-filters="sRGB">
<feFlood flood-opacity="0" result="BackgroundImageFix"/>
<feColorMatrix in="SourceAlpha" type="matrix" values="0 0 0 0 0 0 0 0 0 0 0 0 0 0 0 0 0 0 127 0" result="hardAlpha"/>
<feOffset dy="4"/>
<feGaussianBlur stdDeviation="2"/>
<feComposite in2="hardAlpha" operator="out"/>
<feColorMatrix type="matrix" values="0 0 0 0 0 0 0 0 0 0 0 0 0 0 0 0 0 0 0.25 0"/>
<feBlend mode="normal" in2="BackgroundImageFix" result="effect1_dropShadow_322_1697"/>
<feBlend mode="normal" in="SourceGraphic" in2="effect1_dropShadow_322_1697" result="shape"/>
</filter>
<filter id="filter20_d_322_1697" x="228.758" y="4.60107" width="18.5286" height="19.5233" filterUnits="userSpaceOnUse" color-interpolation-filters="sRGB">
<feFlood flood-opacity="0" result="BackgroundImageFix"/>
<feColorMatrix in="SourceAlpha" type="matrix" values="0 0 0 0 0 0 0 0 0 0 0 0 0 0 0 0 0 0 127 0" result="hardAlpha"/>
<feOffset dy="4"/>
<feGaussianBlur stdDeviation="2"/>
<feComposite in2="hardAlpha" operator="out"/>
<feColorMatrix type="matrix" values="0 0 0 0 0 0 0 0 0 0 0 0 0 0 0 0 0 0 0.25 0"/>
<feBlend mode="normal" in2="BackgroundImageFix" result="effect1_dropShadow_322_1697"/>
<feBlend mode="normal" in="SourceGraphic" in2="effect1_dropShadow_322_1697" result="shape"/>
</filter>
<filter id="filter21_d_322_1697" x="213.85" y="4.45605" width="19.0259" height="19.7098" filterUnits="userSpaceOnUse" color-interpolation-filters="sRGB">
<feFlood flood-opacity="0" result="BackgroundImageFix"/>
<feColorMatrix in="SourceAlpha" type="matrix" values="0 0 0 0 0 0 0 0 0 0 0 0 0 0 0 0 0 0 127 0" result="hardAlpha"/>
<feOffset dy="4"/>
<feGaussianBlur stdDeviation="2"/>
<feComposite in2="hardAlpha" operator="out"/>
<feColorMatrix type="matrix" values="0 0 0 0 0 0 0 0 0 0 0 0 0 0 0 0 0 0 0.25 0"/>
<feBlend mode="normal" in2="BackgroundImageFix" result="effect1_dropShadow_322_1697"/>
<feBlend mode="normal" in="SourceGraphic" in2="effect1_dropShadow_322_1697" result="shape"/>
</filter>
<filter id="filter22_d_322_1697" x="200.313" y="4.60107" width="19.5442" height="23.5441" filterUnits="userSpaceOnUse" color-interpolation-filters="sRGB">
<feFlood flood-opacity="0" result="BackgroundImageFix"/>
<feColorMatrix in="SourceAlpha" type="matrix" values="0 0 0 0 0 0 0 0 0 0 0 0 0 0 0 0 0 0 127 0" result="hardAlpha"/>
<feOffset dy="4"/>
<feGaussianBlur stdDeviation="2"/>
<feComposite in2="hardAlpha" operator="out"/>
<feColorMatrix type="matrix" values="0 0 0 0 0 0 0 0 0 0 0 0 0 0 0 0 0 0 0.25 0"/>
<feBlend mode="normal" in2="BackgroundImageFix" result="effect1_dropShadow_322_1697"/>
<feBlend mode="normal" in="SourceGraphic" in2="effect1_dropShadow_322_1697" result="shape"/>
</filter>
<filter id="filter23_d_322_1697" x="178.818" y="1.49219" width="19.1709" height="22.5078" filterUnits="userSpaceOnUse" color-interpolation-filters="sRGB">
<feFlood flood-opacity="0" result="BackgroundImageFix"/>
<feColorMatrix in="SourceAlpha" type="matrix" values="0 0 0 0 0 0 0 0 0 0 0 0 0 0 0 0 0 0 127 0" result="hardAlpha"/>
<feOffset dy="4"/>
<feGaussianBlur stdDeviation="2"/>
<feComposite in2="hardAlpha" operator="out"/>
<feColorMatrix type="matrix" values="0 0 0 0 0 0 0 0 0 0 0 0 0 0 0 0 0 0 0.25 0"/>
<feBlend mode="normal" in2="BackgroundImageFix" result="effect1_dropShadow_322_1697"/>
<feBlend mode="normal" in="SourceGraphic" in2="effect1_dropShadow_322_1697" result="shape"/>
</filter>
<filter id="filter24_d_322_1697" x="162.119" y="1.49219" width="20" height="22.6321" filterUnits="userSpaceOnUse" color-interpolation-filters="sRGB">
<feFlood flood-opacity="0" result="BackgroundImageFix"/>
<feColorMatrix in="SourceAlpha" type="matrix" values="0 0 0 0 0 0 0 0 0 0 0 0 0 0 0 0 0 0 127 0" result="hardAlpha"/>
<feOffset dy="4"/>
<feGaussianBlur stdDeviation="2"/>
<feComposite in2="hardAlpha" operator="out"/>
<feColorMatrix type="matrix" values="0 0 0 0 0 0 0 0 0 0 0 0 0 0 0 0 0 0 0.25 0"/>
<feBlend mode="normal" in2="BackgroundImageFix" result="effect1_dropShadow_322_1697"/>
<feBlend mode="normal" in="SourceGraphic" in2="effect1_dropShadow_322_1697" result="shape"/>
</filter>
<filter id="filter25_d_322_1697" x="145.669" y="0.456055" width="12.9949" height="23.5441" filterUnits="userSpaceOnUse" color-interpolation-filters="sRGB">
<feFlood flood-opacity="0" result="BackgroundImageFix"/>
<feColorMatrix in="SourceAlpha" type="matrix" values="0 0 0 0 0 0 0 0 0 0 0 0 0 0 0 0 0 0 127 0" result="hardAlpha"/>
<feOffset dy="4"/>
<feGaussianBlur stdDeviation="2"/>
<feComposite in2="hardAlpha" operator="out"/>
<feColorMatrix type="matrix" values="0 0 0 0 0 0 0 0 0 0 0 0 0 0 0 0 0 0 0.25 0"/>
<feBlend mode="normal" in2="BackgroundImageFix" result="effect1_dropShadow_322_1697"/>
<feBlend mode="normal" in="SourceGraphic" in2="effect1_dropShadow_322_1697" result="shape"/>
</filter>
<filter id="filter26_d_322_1697" x="131.244" y="4.45605" width="18.592" height="19.7098" filterUnits="userSpaceOnUse" color-interpolation-filters="sRGB">
<feFlood flood-opacity="0" result="BackgroundImageFix"/>
<feColorMatrix in="SourceAlpha" type="matrix" values="0 0 0 0 0 0 0 0 0 0 0 0 0 0 0 0 0 0 127 0" result="hardAlpha"/>
<feOffset dy="4"/>
<feGaussianBlur stdDeviation="2"/>
<feComposite in2="hardAlpha" operator="out"/>
<feColorMatrix type="matrix" values="0 0 0 0 0 0 0 0 0 0 0 0 0 0 0 0 0 0 0.25 0"/>
<feBlend mode="normal" in2="BackgroundImageFix" result="effect1_dropShadow_322_1697"/>
<feBlend mode="normal" in="SourceGraphic" in2="effect1_dropShadow_322_1697" result="shape"/>
</filter>
<filter id="filter27_d_322_1697" x="117.404" y="4.60107" width="19.7927" height="19.399" filterUnits="userSpaceOnUse" color-interpolation-filters="sRGB">
<feFlood flood-opacity="0" result="BackgroundImageFix"/>
<feColorMatrix in="SourceAlpha" type="matrix" values="0 0 0 0 0 0 0 0 0 0 0 0 0 0 0 0 0 0 127 0" result="hardAlpha"/>
<feOffset dy="4"/>
<feGaussianBlur stdDeviation="2"/>
<feComposite in2="hardAlpha" operator="out"/>
<feColorMatrix type="matrix" values="0 0 0 0 0 0 0 0 0 0 0 0 0 0 0 0 0 0 0.25 0"/>
<feBlend mode="normal" in2="BackgroundImageFix" result="effect1_dropShadow_322_1697"/>
<feBlend mode="normal" in="SourceGraphic" in2="effect1_dropShadow_322_1697" result="shape"/>
</filter>
<filter id="filter28_d_322_1697" x="104.525" y="4.45605" width="18.592" height="19.7098" filterUnits="userSpaceOnUse" color-interpolation-filters="sRGB">
<feFlood flood-opacity="0" result="BackgroundImageFix"/>
<feColorMatrix in="SourceAlpha" type="matrix" values="0 0 0 0 0 0 0 0 0 0 0 0 0 0 0 0 0 0 127 0" result="hardAlpha"/>
<feOffset dy="4"/>
<feGaussianBlur stdDeviation="2"/>
<feComposite in2="hardAlpha" operator="out"/>
<feColorMatrix type="matrix" values="0 0 0 0 0 0 0 0 0 0 0 0 0 0 0 0 0 0 0.25 0"/>
<feBlend mode="normal" in2="BackgroundImageFix" result="effect1_dropShadow_322_1697"/>
<feBlend mode="normal" in="SourceGraphic" in2="effect1_dropShadow_322_1697" result="shape"/>
</filter>
<filter id="filter29_d_322_1697" x="91.4307" y="1.49219" width="18.6113" height="22.5078" filterUnits="userSpaceOnUse" color-interpolation-filters="sRGB">
<feFlood flood-opacity="0" result="BackgroundImageFix"/>
<feColorMatrix in="SourceAlpha" type="matrix" values="0 0 0 0 0 0 0 0 0 0 0 0 0 0 0 0 0 0 127 0" result="hardAlpha"/>
<feOffset dy="4"/>
<feGaussianBlur stdDeviation="2"/>
<feComposite in2="hardAlpha" operator="out"/>
<feColorMatrix type="matrix" values="0 0 0 0 0 0 0 0 0 0 0 0 0 0 0 0 0 0 0.25 0"/>
<feBlend mode="normal" in2="BackgroundImageFix" result="effect1_dropShadow_322_1697"/>
<feBlend mode="normal" in="SourceGraphic" in2="effect1_dropShadow_322_1697" result="shape"/>
</filter>
</defs>
</svg>
