<svg width="344" height="183" viewBox="0 0 344 183" fill="none" xmlns="http://www.w3.org/2000/svg">
<g filter="url(#filter0_d_322_1733)">
<path d="M239.584 166.61V150.634H244.537V173H237.891L230.414 157.088V173H225.398V150.634H232.076L239.584 166.61Z" fill="white"/>
</g>
<g filter="url(#filter1_d_322_1733)">
<path d="M211.646 166.29L215.384 150.634H221.135L214.777 173H208.802L204.936 158.718L201.07 173H195.095L188.768 150.634H194.52L198.258 166.29L202.539 150.634H207.364L211.646 166.29Z" fill="white"/>
</g>
<g filter="url(#filter2_d_322_1733)">
<path d="M176.127 173.192C169.513 173.192 166.51 170.444 166.51 163.702V159.868C166.51 153.158 169.513 150.442 176.127 150.442C182.709 150.442 185.713 153.158 185.713 159.868V163.702C185.713 170.444 182.709 173.192 176.127 173.192ZM176.127 169.166C178.971 169.166 180.345 167.824 180.345 164.245V159.325C180.345 155.81 178.971 154.468 176.127 154.468C173.284 154.468 171.878 155.81 171.878 159.325V164.245C171.878 167.824 173.284 169.166 176.127 169.166Z" fill="white"/>
</g>
<g filter="url(#filter3_d_322_1733)">
<path d="M162.896 150.634V154.915H156.729V173H151.361V154.915H145.195V150.634H162.896Z" fill="white"/>
</g>
<g filter="url(#filter4_d_322_1733)">
<path d="M133.499 150.634C139.027 150.634 141.423 153.158 141.423 158.654C141.423 164.149 139.027 166.642 133.499 166.642H129.601L129.569 173H124.201V150.634H133.499ZM129.633 162.488H132.317C135.097 162.488 136.055 161.274 136.055 158.654C136.055 156.002 135.097 154.788 132.317 154.788H129.665L129.633 162.488Z" fill="white"/>
</g>
<g filter="url(#filter5_d_322_1733)">
<path d="M108.719 173.192C102.68 173.192 99.4528 170.636 99.4528 164.82V150.634H104.821V164.82C104.821 167.984 106.067 169.166 108.719 169.166C111.339 169.166 112.585 167.984 112.585 164.82V150.634H117.953V164.82C117.953 170.636 114.758 173.192 108.719 173.192Z" fill="white"/>
</g>
<g filter="url(#filter6_d_322_1733)">
<path d="M273.204 119.192C267.357 119.192 264.481 116.412 264.481 110.085V105.484C264.481 99.19 267.357 96.4421 273.204 96.4421C279.051 96.4421 281.895 99.19 281.895 105.484V110.085C281.895 116.412 279.051 119.192 273.204 119.192ZM273.204 117.69C277.677 117.69 279.914 115.421 279.914 110.245V105.325C279.914 100.212 277.677 97.9439 273.204 97.9439C268.731 97.9439 266.462 100.212 266.462 105.325V110.245C266.462 115.421 268.731 117.69 273.204 117.69Z" fill="white"/>
</g>
<g filter="url(#filter7_d_322_1733)">
<path d="M260.597 96.6338V98.2314H253.248V119H251.267V98.2314H243.886V96.6338H260.597Z" fill="white"/>
</g>
<g filter="url(#filter8_d_322_1733)">
<path d="M214.811 108.041V117.402H227.816V119H212.83V96.6338H227.528V98.2314H214.811V106.475H226.346V108.041H214.811Z" fill="white"/>
</g>
<g filter="url(#filter9_d_322_1733)">
<path d="M194.112 112.194L202.26 96.6338H204.912V119H203.027V99.0941L194.911 114.303H193.313L185.198 99.0941V119H183.313V96.6338H185.965L194.112 112.194Z" fill="white"/>
</g>
<g filter="url(#filter10_d_322_1733)">
<path d="M167.782 119.192C161.935 119.192 159.06 116.412 159.06 110.085V105.484C159.06 99.19 161.935 96.4421 167.782 96.4421C173.629 96.4421 176.473 99.19 176.473 105.484V110.085C176.473 116.412 173.629 119.192 167.782 119.192ZM167.782 117.69C172.256 117.69 174.492 115.421 174.492 110.245V105.325C174.492 100.212 172.256 97.9439 167.782 97.9439C163.309 97.9439 161.041 100.212 161.041 105.325V110.245C161.041 115.421 163.309 117.69 167.782 117.69Z" fill="white"/>
</g>
<g filter="url(#filter11_d_322_1733)">
<path d="M144.524 119.16C138.709 119.16 135.865 116.412 135.865 110.085V105.484C135.865 99.19 138.709 96.4421 144.524 96.4421C150.339 96.4421 153.183 99.19 153.183 104.398H151.202C151.202 100.212 148.997 97.9439 144.524 97.9439C140.083 97.9439 137.846 100.212 137.846 105.325V110.245C137.846 115.421 140.083 117.658 144.524 117.658C148.997 117.658 151.202 115.421 151.202 111.172H153.183C153.183 116.412 150.339 119.16 144.524 119.16Z" fill="white"/>
</g>
<g filter="url(#filter12_d_322_1733)">
<path d="M132.407 119H118.029V96.6338H120.01V117.402H132.407V119Z" fill="white"/>
</g>
<g filter="url(#filter13_d_322_1733)">
<path d="M98.333 108.041V117.402H111.337V119H96.352V96.6338H111.05V98.2314H98.333V106.475H109.868V108.041H98.333Z" fill="white"/>
</g>
<g filter="url(#filter14_d_322_1733)">
<path d="M82.667 116.572L88.4503 96.6338H90.5591L83.7853 119H81.6126L75.7974 99.6372L69.9503 119H67.8095L61.0677 96.6338H63.1765L68.9598 116.572L74.9028 96.6338H76.724L82.667 116.572Z" fill="white"/>
</g>
<g filter="url(#filter15_d_322_1733)">
<path d="M270.004 42.4558C273.59 42.4558 275.455 44.6734 275.206 49.2537H268.015C268.16 51.0983 268.823 51.7822 269.963 51.7822C271.124 51.7822 271.683 51.1605 271.849 50.3315H275.103C274.771 52.5698 273.134 54.1657 270.004 54.1657C266.481 54.1657 264.636 52.176 264.636 48.3211C264.636 44.4247 266.543 42.4558 270.004 42.4558ZM269.963 44.86C268.864 44.86 268.201 45.5232 268.015 47.2848H271.911C271.807 45.5439 271.124 44.86 269.963 44.86Z" fill="white"/>
</g>
<g filter="url(#filter16_d_322_1733)">
<path d="M261.005 40.5699C260.259 40.5699 260.031 40.9015 260.031 41.8341V42.6009H262V44.8807H260.031V53.9999H256.715V44.8807H255.388V42.6009H256.715V41.7927C256.715 39.4714 257.606 38.3108 259.886 38.3108C260.736 38.3108 261.751 38.4351 262.559 38.6009L262.249 40.7149C261.855 40.6528 261.42 40.5699 261.005 40.5699Z" fill="white"/>
</g>
<g filter="url(#filter17_d_322_1733)">
<path d="M251.775 38.8704V41.4403H248.459V38.8704H251.775ZM248.459 42.6009H251.775V53.9999H248.459V42.6009Z" fill="white"/>
</g>
<g filter="url(#filter18_d_322_1733)">
<path d="M244.845 53.9999H243.146C240.783 53.9999 239.851 53.5024 239.851 51.0983V38.4558H243.167V50.6631C243.167 51.3885 243.415 51.5543 244.037 51.5543H244.845V53.9999Z" fill="white"/>
</g>
<g filter="url(#filter19_d_322_1733)">
<path d="M224.973 53.9998H221.657V42.6008H224.787V44.9221L224.828 44.9428C225.346 43.5749 226.196 42.6008 228.517 42.6008H228.891V45.7096H228.517C226.383 45.7096 224.973 46.2485 224.973 48.9428V53.9998Z" fill="white"/>
</g>
<g filter="url(#filter20_d_322_1733)">
<path d="M213.971 49.3573V42.6008H217.287V53.9998H213.971V53.2122C213.266 53.8133 212.292 54.1241 211.111 54.1241C208.085 54.1241 206.758 52.5697 206.758 49.5646V42.6008H210.074V49.5231C210.074 50.9739 210.738 51.6786 212.022 51.6786C213.328 51.6786 213.971 50.9117 213.971 49.3573Z" fill="white"/>
</g>
<g filter="url(#filter21_d_322_1733)">
<path d="M197.363 54.1657C193.653 54.1657 191.85 52.176 191.85 48.3211C191.85 44.4247 193.653 42.4558 197.363 42.4558C201.073 42.4558 202.876 44.4247 202.876 48.3211C202.876 52.176 201.073 54.1657 197.363 54.1657ZM197.363 51.7822C198.897 51.7822 199.56 50.6838 199.56 48.3004C199.56 45.9169 198.897 44.8185 197.363 44.8185C195.809 44.8185 195.146 45.9169 195.146 48.3004C195.146 50.6838 195.809 51.7822 197.363 51.7822Z" fill="white"/>
</g>
<g filter="url(#filter22_d_322_1733)">
<path d="M183.992 49.4195L186.583 42.6008H189.857L183.619 58.1449H180.531L182.396 53.4609L178.313 42.6008H181.754L183.992 49.4195Z" fill="white"/>
</g>
<g filter="url(#filter23_d_322_1733)">
<path d="M162.85 39.4922C166.435 39.4922 167.989 41.1295 167.989 44.6943C167.989 48.259 166.435 49.8756 162.85 49.8756H160.321L160.3 54H156.818V39.4922H162.85ZM160.342 47.1813H162.083C163.886 47.1813 164.508 46.3937 164.508 44.6943C164.508 42.9741 163.886 42.1865 162.083 42.1865H160.363L160.342 47.1813Z" fill="white"/>
</g>
<g filter="url(#filter24_d_322_1733)">
<path d="M146.129 54.1243C142.212 54.1243 140.119 52.4663 140.119 48.6943V39.4922H143.601V48.6943C143.601 50.7461 144.409 51.5129 146.129 51.5129C147.829 51.5129 148.637 50.7461 148.637 48.6943V39.4922H152.119V48.6943C152.119 52.4663 150.047 54.1243 146.129 54.1243Z" fill="white"/>
</g>
<g filter="url(#filter25_d_322_1733)">
<path d="M128.664 53.9999H126.965C124.602 53.9999 123.669 53.5024 123.669 51.0983V38.4558H126.985V50.6631C126.985 51.3885 127.234 51.5543 127.856 51.5543H128.664V53.9999Z" fill="white"/>
</g>
<g filter="url(#filter26_d_322_1733)">
<path d="M114.612 42.4558C118.197 42.4558 120.062 44.6734 119.814 49.2537H112.622C112.767 51.0983 113.43 51.7822 114.57 51.7822C115.731 51.7822 116.29 51.1605 116.456 50.3315H119.71C119.378 52.5698 117.741 54.1657 114.612 54.1657C111.088 54.1657 109.244 52.176 109.244 48.3211C109.244 44.4247 111.15 42.4558 114.612 42.4558ZM114.57 44.86C113.472 44.86 112.808 45.5232 112.622 47.2848H116.518C116.415 45.5439 115.731 44.86 114.57 44.86Z" fill="white"/>
</g>
<g filter="url(#filter27_d_322_1733)">
<path d="M102.865 53.9998H99.7354L95.4038 42.6008H98.9686L101.29 50.2278L103.632 42.6008H107.197L102.865 53.9998Z" fill="white"/>
</g>
<g filter="url(#filter28_d_322_1733)">
<path d="M87.8924 42.4558C91.4779 42.4558 93.3432 44.6734 93.0945 49.2537H85.9028C86.0479 51.0983 86.7111 51.7822 87.851 51.7822C89.0116 51.7822 89.5712 51.1605 89.737 50.3315H92.9909C92.6593 52.5698 91.022 54.1657 87.8924 54.1657C84.3691 54.1657 82.5246 52.176 82.5246 48.3211C82.5246 44.4247 84.4313 42.4558 87.8924 42.4558ZM87.851 44.86C86.7525 44.86 86.0893 45.5232 85.9028 47.2848H89.7992C89.6955 45.5439 89.0116 44.86 87.851 44.86Z" fill="white"/>
</g>
<g filter="url(#filter29_d_322_1733)">
<path d="M80.0421 54H69.4307V39.4922H72.9125V51.2228H80.0421V54Z" fill="white"/>
</g>
<defs>
<filter id="filter0_d_322_1733" x="221.398" y="150.634" width="27.139" height="30.3662" filterUnits="userSpaceOnUse" color-interpolation-filters="sRGB">
<feFlood flood-opacity="0" result="BackgroundImageFix"/>
<feColorMatrix in="SourceAlpha" type="matrix" values="0 0 0 0 0 0 0 0 0 0 0 0 0 0 0 0 0 0 127 0" result="hardAlpha"/>
<feOffset dy="4"/>
<feGaussianBlur stdDeviation="2"/>
<feComposite in2="hardAlpha" operator="out"/>
<feColorMatrix type="matrix" values="0 0 0 0 0 0 0 0 0 0 0 0 0 0 0 0 0 0 0.25 0"/>
<feBlend mode="normal" in2="BackgroundImageFix" result="effect1_dropShadow_322_1733"/>
<feBlend mode="normal" in="SourceGraphic" in2="effect1_dropShadow_322_1733" result="shape"/>
</filter>
<filter id="filter1_d_322_1733" x="184.768" y="150.634" width="40.367" height="30.3662" filterUnits="userSpaceOnUse" color-interpolation-filters="sRGB">
<feFlood flood-opacity="0" result="BackgroundImageFix"/>
<feColorMatrix in="SourceAlpha" type="matrix" values="0 0 0 0 0 0 0 0 0 0 0 0 0 0 0 0 0 0 127 0" result="hardAlpha"/>
<feOffset dy="4"/>
<feGaussianBlur stdDeviation="2"/>
<feComposite in2="hardAlpha" operator="out"/>
<feColorMatrix type="matrix" values="0 0 0 0 0 0 0 0 0 0 0 0 0 0 0 0 0 0 0.25 0"/>
<feBlend mode="normal" in2="BackgroundImageFix" result="effect1_dropShadow_322_1733"/>
<feBlend mode="normal" in="SourceGraphic" in2="effect1_dropShadow_322_1733" result="shape"/>
</filter>
<filter id="filter2_d_322_1733" x="162.51" y="150.442" width="27.2029" height="30.7495" filterUnits="userSpaceOnUse" color-interpolation-filters="sRGB">
<feFlood flood-opacity="0" result="BackgroundImageFix"/>
<feColorMatrix in="SourceAlpha" type="matrix" values="0 0 0 0 0 0 0 0 0 0 0 0 0 0 0 0 0 0 127 0" result="hardAlpha"/>
<feOffset dy="4"/>
<feGaussianBlur stdDeviation="2"/>
<feComposite in2="hardAlpha" operator="out"/>
<feColorMatrix type="matrix" values="0 0 0 0 0 0 0 0 0 0 0 0 0 0 0 0 0 0 0.25 0"/>
<feBlend mode="normal" in2="BackgroundImageFix" result="effect1_dropShadow_322_1733"/>
<feBlend mode="normal" in="SourceGraphic" in2="effect1_dropShadow_322_1733" result="shape"/>
</filter>
<filter id="filter3_d_322_1733" x="141.195" y="150.634" width="25.7012" height="30.3662" filterUnits="userSpaceOnUse" color-interpolation-filters="sRGB">
<feFlood flood-opacity="0" result="BackgroundImageFix"/>
<feColorMatrix in="SourceAlpha" type="matrix" values="0 0 0 0 0 0 0 0 0 0 0 0 0 0 0 0 0 0 127 0" result="hardAlpha"/>
<feOffset dy="4"/>
<feGaussianBlur stdDeviation="2"/>
<feComposite in2="hardAlpha" operator="out"/>
<feColorMatrix type="matrix" values="0 0 0 0 0 0 0 0 0 0 0 0 0 0 0 0 0 0 0.25 0"/>
<feBlend mode="normal" in2="BackgroundImageFix" result="effect1_dropShadow_322_1733"/>
<feBlend mode="normal" in="SourceGraphic" in2="effect1_dropShadow_322_1733" result="shape"/>
</filter>
<filter id="filter4_d_322_1733" x="120.201" y="150.634" width="25.2219" height="30.3662" filterUnits="userSpaceOnUse" color-interpolation-filters="sRGB">
<feFlood flood-opacity="0" result="BackgroundImageFix"/>
<feColorMatrix in="SourceAlpha" type="matrix" values="0 0 0 0 0 0 0 0 0 0 0 0 0 0 0 0 0 0 127 0" result="hardAlpha"/>
<feOffset dy="4"/>
<feGaussianBlur stdDeviation="2"/>
<feComposite in2="hardAlpha" operator="out"/>
<feColorMatrix type="matrix" values="0 0 0 0 0 0 0 0 0 0 0 0 0 0 0 0 0 0 0.25 0"/>
<feBlend mode="normal" in2="BackgroundImageFix" result="effect1_dropShadow_322_1733"/>
<feBlend mode="normal" in="SourceGraphic" in2="effect1_dropShadow_322_1733" result="shape"/>
</filter>
<filter id="filter5_d_322_1733" x="95.4528" y="150.634" width="26.5" height="30.5579" filterUnits="userSpaceOnUse" color-interpolation-filters="sRGB">
<feFlood flood-opacity="0" result="BackgroundImageFix"/>
<feColorMatrix in="SourceAlpha" type="matrix" values="0 0 0 0 0 0 0 0 0 0 0 0 0 0 0 0 0 0 127 0" result="hardAlpha"/>
<feOffset dy="4"/>
<feGaussianBlur stdDeviation="2"/>
<feComposite in2="hardAlpha" operator="out"/>
<feColorMatrix type="matrix" values="0 0 0 0 0 0 0 0 0 0 0 0 0 0 0 0 0 0 0.25 0"/>
<feBlend mode="normal" in2="BackgroundImageFix" result="effect1_dropShadow_322_1733"/>
<feBlend mode="normal" in="SourceGraphic" in2="effect1_dropShadow_322_1733" result="shape"/>
</filter>
<filter id="filter6_d_322_1733" x="260.481" y="96.4421" width="25.4137" height="30.7495" filterUnits="userSpaceOnUse" color-interpolation-filters="sRGB">
<feFlood flood-opacity="0" result="BackgroundImageFix"/>
<feColorMatrix in="SourceAlpha" type="matrix" values="0 0 0 0 0 0 0 0 0 0 0 0 0 0 0 0 0 0 127 0" result="hardAlpha"/>
<feOffset dy="4"/>
<feGaussianBlur stdDeviation="2"/>
<feComposite in2="hardAlpha" operator="out"/>
<feColorMatrix type="matrix" values="0 0 0 0 0 0 0 0 0 0 0 0 0 0 0 0 0 0 0.25 0"/>
<feBlend mode="normal" in2="BackgroundImageFix" result="effect1_dropShadow_322_1733"/>
<feBlend mode="normal" in="SourceGraphic" in2="effect1_dropShadow_322_1733" result="shape"/>
</filter>
<filter id="filter7_d_322_1733" x="239.886" y="96.6338" width="24.7107" height="30.3662" filterUnits="userSpaceOnUse" color-interpolation-filters="sRGB">
<feFlood flood-opacity="0" result="BackgroundImageFix"/>
<feColorMatrix in="SourceAlpha" type="matrix" values="0 0 0 0 0 0 0 0 0 0 0 0 0 0 0 0 0 0 127 0" result="hardAlpha"/>
<feOffset dy="4"/>
<feGaussianBlur stdDeviation="2"/>
<feComposite in2="hardAlpha" operator="out"/>
<feColorMatrix type="matrix" values="0 0 0 0 0 0 0 0 0 0 0 0 0 0 0 0 0 0 0.25 0"/>
<feBlend mode="normal" in2="BackgroundImageFix" result="effect1_dropShadow_322_1733"/>
<feBlend mode="normal" in="SourceGraphic" in2="effect1_dropShadow_322_1733" result="shape"/>
</filter>
<filter id="filter8_d_322_1733" x="208.83" y="96.6338" width="22.9853" height="30.3662" filterUnits="userSpaceOnUse" color-interpolation-filters="sRGB">
<feFlood flood-opacity="0" result="BackgroundImageFix"/>
<feColorMatrix in="SourceAlpha" type="matrix" values="0 0 0 0 0 0 0 0 0 0 0 0 0 0 0 0 0 0 127 0" result="hardAlpha"/>
<feOffset dy="4"/>
<feGaussianBlur stdDeviation="2"/>
<feComposite in2="hardAlpha" operator="out"/>
<feColorMatrix type="matrix" values="0 0 0 0 0 0 0 0 0 0 0 0 0 0 0 0 0 0 0.25 0"/>
<feBlend mode="normal" in2="BackgroundImageFix" result="effect1_dropShadow_322_1733"/>
<feBlend mode="normal" in="SourceGraphic" in2="effect1_dropShadow_322_1733" result="shape"/>
</filter>
<filter id="filter9_d_322_1733" x="179.313" y="96.6338" width="29.5993" height="30.3662" filterUnits="userSpaceOnUse" color-interpolation-filters="sRGB">
<feFlood flood-opacity="0" result="BackgroundImageFix"/>
<feColorMatrix in="SourceAlpha" type="matrix" values="0 0 0 0 0 0 0 0 0 0 0 0 0 0 0 0 0 0 127 0" result="hardAlpha"/>
<feOffset dy="4"/>
<feGaussianBlur stdDeviation="2"/>
<feComposite in2="hardAlpha" operator="out"/>
<feColorMatrix type="matrix" values="0 0 0 0 0 0 0 0 0 0 0 0 0 0 0 0 0 0 0.25 0"/>
<feBlend mode="normal" in2="BackgroundImageFix" result="effect1_dropShadow_322_1733"/>
<feBlend mode="normal" in="SourceGraphic" in2="effect1_dropShadow_322_1733" result="shape"/>
</filter>
<filter id="filter10_d_322_1733" x="155.06" y="96.4421" width="25.4137" height="30.7495" filterUnits="userSpaceOnUse" color-interpolation-filters="sRGB">
<feFlood flood-opacity="0" result="BackgroundImageFix"/>
<feColorMatrix in="SourceAlpha" type="matrix" values="0 0 0 0 0 0 0 0 0 0 0 0 0 0 0 0 0 0 127 0" result="hardAlpha"/>
<feOffset dy="4"/>
<feGaussianBlur stdDeviation="2"/>
<feComposite in2="hardAlpha" operator="out"/>
<feColorMatrix type="matrix" values="0 0 0 0 0 0 0 0 0 0 0 0 0 0 0 0 0 0 0.25 0"/>
<feBlend mode="normal" in2="BackgroundImageFix" result="effect1_dropShadow_322_1733"/>
<feBlend mode="normal" in="SourceGraphic" in2="effect1_dropShadow_322_1733" result="shape"/>
</filter>
<filter id="filter11_d_322_1733" x="131.865" y="96.4421" width="25.3178" height="30.7175" filterUnits="userSpaceOnUse" color-interpolation-filters="sRGB">
<feFlood flood-opacity="0" result="BackgroundImageFix"/>
<feColorMatrix in="SourceAlpha" type="matrix" values="0 0 0 0 0 0 0 0 0 0 0 0 0 0 0 0 0 0 127 0" result="hardAlpha"/>
<feOffset dy="4"/>
<feGaussianBlur stdDeviation="2"/>
<feComposite in2="hardAlpha" operator="out"/>
<feColorMatrix type="matrix" values="0 0 0 0 0 0 0 0 0 0 0 0 0 0 0 0 0 0 0.25 0"/>
<feBlend mode="normal" in2="BackgroundImageFix" result="effect1_dropShadow_322_1733"/>
<feBlend mode="normal" in="SourceGraphic" in2="effect1_dropShadow_322_1733" result="shape"/>
</filter>
<filter id="filter12_d_322_1733" x="114.029" y="96.6338" width="22.3782" height="30.3662" filterUnits="userSpaceOnUse" color-interpolation-filters="sRGB">
<feFlood flood-opacity="0" result="BackgroundImageFix"/>
<feColorMatrix in="SourceAlpha" type="matrix" values="0 0 0 0 0 0 0 0 0 0 0 0 0 0 0 0 0 0 127 0" result="hardAlpha"/>
<feOffset dy="4"/>
<feGaussianBlur stdDeviation="2"/>
<feComposite in2="hardAlpha" operator="out"/>
<feColorMatrix type="matrix" values="0 0 0 0 0 0 0 0 0 0 0 0 0 0 0 0 0 0 0.25 0"/>
<feBlend mode="normal" in2="BackgroundImageFix" result="effect1_dropShadow_322_1733"/>
<feBlend mode="normal" in="SourceGraphic" in2="effect1_dropShadow_322_1733" result="shape"/>
</filter>
<filter id="filter13_d_322_1733" x="92.352" y="96.6338" width="22.9853" height="30.3662" filterUnits="userSpaceOnUse" color-interpolation-filters="sRGB">
<feFlood flood-opacity="0" result="BackgroundImageFix"/>
<feColorMatrix in="SourceAlpha" type="matrix" values="0 0 0 0 0 0 0 0 0 0 0 0 0 0 0 0 0 0 127 0" result="hardAlpha"/>
<feOffset dy="4"/>
<feGaussianBlur stdDeviation="2"/>
<feComposite in2="hardAlpha" operator="out"/>
<feColorMatrix type="matrix" values="0 0 0 0 0 0 0 0 0 0 0 0 0 0 0 0 0 0 0.25 0"/>
<feBlend mode="normal" in2="BackgroundImageFix" result="effect1_dropShadow_322_1733"/>
<feBlend mode="normal" in="SourceGraphic" in2="effect1_dropShadow_322_1733" result="shape"/>
</filter>
<filter id="filter14_d_322_1733" x="57.0677" y="96.6338" width="37.4914" height="30.3662" filterUnits="userSpaceOnUse" color-interpolation-filters="sRGB">
<feFlood flood-opacity="0" result="BackgroundImageFix"/>
<feColorMatrix in="SourceAlpha" type="matrix" values="0 0 0 0 0 0 0 0 0 0 0 0 0 0 0 0 0 0 127 0" result="hardAlpha"/>
<feOffset dy="4"/>
<feGaussianBlur stdDeviation="2"/>
<feComposite in2="hardAlpha" operator="out"/>
<feColorMatrix type="matrix" values="0 0 0 0 0 0 0 0 0 0 0 0 0 0 0 0 0 0 0.25 0"/>
<feBlend mode="normal" in2="BackgroundImageFix" result="effect1_dropShadow_322_1733"/>
<feBlend mode="normal" in="SourceGraphic" in2="effect1_dropShadow_322_1733" result="shape"/>
</filter>
<filter id="filter15_d_322_1733" x="260.636" y="42.4558" width="18.592" height="19.71" filterUnits="userSpaceOnUse" color-interpolation-filters="sRGB">
<feFlood flood-opacity="0" result="BackgroundImageFix"/>
<feColorMatrix in="SourceAlpha" type="matrix" values="0 0 0 0 0 0 0 0 0 0 0 0 0 0 0 0 0 0 127 0" result="hardAlpha"/>
<feOffset dy="4"/>
<feGaussianBlur stdDeviation="2"/>
<feComposite in2="hardAlpha" operator="out"/>
<feColorMatrix type="matrix" values="0 0 0 0 0 0 0 0 0 0 0 0 0 0 0 0 0 0 0.25 0"/>
<feBlend mode="normal" in2="BackgroundImageFix" result="effect1_dropShadow_322_1733"/>
<feBlend mode="normal" in="SourceGraphic" in2="effect1_dropShadow_322_1733" result="shape"/>
</filter>
<filter id="filter16_d_322_1733" x="251.388" y="38.3108" width="15.171" height="23.6892" filterUnits="userSpaceOnUse" color-interpolation-filters="sRGB">
<feFlood flood-opacity="0" result="BackgroundImageFix"/>
<feColorMatrix in="SourceAlpha" type="matrix" values="0 0 0 0 0 0 0 0 0 0 0 0 0 0 0 0 0 0 127 0" result="hardAlpha"/>
<feOffset dy="4"/>
<feGaussianBlur stdDeviation="2"/>
<feComposite in2="hardAlpha" operator="out"/>
<feColorMatrix type="matrix" values="0 0 0 0 0 0 0 0 0 0 0 0 0 0 0 0 0 0 0.25 0"/>
<feBlend mode="normal" in2="BackgroundImageFix" result="effect1_dropShadow_322_1733"/>
<feBlend mode="normal" in="SourceGraphic" in2="effect1_dropShadow_322_1733" result="shape"/>
</filter>
<filter id="filter17_d_322_1733" x="244.459" y="38.8704" width="11.316" height="23.1296" filterUnits="userSpaceOnUse" color-interpolation-filters="sRGB">
<feFlood flood-opacity="0" result="BackgroundImageFix"/>
<feColorMatrix in="SourceAlpha" type="matrix" values="0 0 0 0 0 0 0 0 0 0 0 0 0 0 0 0 0 0 127 0" result="hardAlpha"/>
<feOffset dy="4"/>
<feGaussianBlur stdDeviation="2"/>
<feComposite in2="hardAlpha" operator="out"/>
<feColorMatrix type="matrix" values="0 0 0 0 0 0 0 0 0 0 0 0 0 0 0 0 0 0 0.25 0"/>
<feBlend mode="normal" in2="BackgroundImageFix" result="effect1_dropShadow_322_1733"/>
<feBlend mode="normal" in="SourceGraphic" in2="effect1_dropShadow_322_1733" result="shape"/>
</filter>
<filter id="filter18_d_322_1733" x="235.851" y="38.4558" width="12.9948" height="23.5439" filterUnits="userSpaceOnUse" color-interpolation-filters="sRGB">
<feFlood flood-opacity="0" result="BackgroundImageFix"/>
<feColorMatrix in="SourceAlpha" type="matrix" values="0 0 0 0 0 0 0 0 0 0 0 0 0 0 0 0 0 0 127 0" result="hardAlpha"/>
<feOffset dy="4"/>
<feGaussianBlur stdDeviation="2"/>
<feComposite in2="hardAlpha" operator="out"/>
<feColorMatrix type="matrix" values="0 0 0 0 0 0 0 0 0 0 0 0 0 0 0 0 0 0 0.25 0"/>
<feBlend mode="normal" in2="BackgroundImageFix" result="effect1_dropShadow_322_1733"/>
<feBlend mode="normal" in="SourceGraphic" in2="effect1_dropShadow_322_1733" result="shape"/>
</filter>
<filter id="filter19_d_322_1733" x="217.657" y="42.6008" width="15.2332" height="19.3989" filterUnits="userSpaceOnUse" color-interpolation-filters="sRGB">
<feFlood flood-opacity="0" result="BackgroundImageFix"/>
<feColorMatrix in="SourceAlpha" type="matrix" values="0 0 0 0 0 0 0 0 0 0 0 0 0 0 0 0 0 0 127 0" result="hardAlpha"/>
<feOffset dy="4"/>
<feGaussianBlur stdDeviation="2"/>
<feComposite in2="hardAlpha" operator="out"/>
<feColorMatrix type="matrix" values="0 0 0 0 0 0 0 0 0 0 0 0 0 0 0 0 0 0 0.25 0"/>
<feBlend mode="normal" in2="BackgroundImageFix" result="effect1_dropShadow_322_1733"/>
<feBlend mode="normal" in="SourceGraphic" in2="effect1_dropShadow_322_1733" result="shape"/>
</filter>
<filter id="filter20_d_322_1733" x="202.758" y="42.6008" width="18.5285" height="19.5232" filterUnits="userSpaceOnUse" color-interpolation-filters="sRGB">
<feFlood flood-opacity="0" result="BackgroundImageFix"/>
<feColorMatrix in="SourceAlpha" type="matrix" values="0 0 0 0 0 0 0 0 0 0 0 0 0 0 0 0 0 0 127 0" result="hardAlpha"/>
<feOffset dy="4"/>
<feGaussianBlur stdDeviation="2"/>
<feComposite in2="hardAlpha" operator="out"/>
<feColorMatrix type="matrix" values="0 0 0 0 0 0 0 0 0 0 0 0 0 0 0 0 0 0 0.25 0"/>
<feBlend mode="normal" in2="BackgroundImageFix" result="effect1_dropShadow_322_1733"/>
<feBlend mode="normal" in="SourceGraphic" in2="effect1_dropShadow_322_1733" result="shape"/>
</filter>
<filter id="filter21_d_322_1733" x="187.85" y="42.4558" width="19.0259" height="19.71" filterUnits="userSpaceOnUse" color-interpolation-filters="sRGB">
<feFlood flood-opacity="0" result="BackgroundImageFix"/>
<feColorMatrix in="SourceAlpha" type="matrix" values="0 0 0 0 0 0 0 0 0 0 0 0 0 0 0 0 0 0 127 0" result="hardAlpha"/>
<feOffset dy="4"/>
<feGaussianBlur stdDeviation="2"/>
<feComposite in2="hardAlpha" operator="out"/>
<feColorMatrix type="matrix" values="0 0 0 0 0 0 0 0 0 0 0 0 0 0 0 0 0 0 0.25 0"/>
<feBlend mode="normal" in2="BackgroundImageFix" result="effect1_dropShadow_322_1733"/>
<feBlend mode="normal" in="SourceGraphic" in2="effect1_dropShadow_322_1733" result="shape"/>
</filter>
<filter id="filter22_d_322_1733" x="174.313" y="42.6008" width="19.544" height="23.5439" filterUnits="userSpaceOnUse" color-interpolation-filters="sRGB">
<feFlood flood-opacity="0" result="BackgroundImageFix"/>
<feColorMatrix in="SourceAlpha" type="matrix" values="0 0 0 0 0 0 0 0 0 0 0 0 0 0 0 0 0 0 127 0" result="hardAlpha"/>
<feOffset dy="4"/>
<feGaussianBlur stdDeviation="2"/>
<feComposite in2="hardAlpha" operator="out"/>
<feColorMatrix type="matrix" values="0 0 0 0 0 0 0 0 0 0 0 0 0 0 0 0 0 0 0.25 0"/>
<feBlend mode="normal" in2="BackgroundImageFix" result="effect1_dropShadow_322_1733"/>
<feBlend mode="normal" in="SourceGraphic" in2="effect1_dropShadow_322_1733" result="shape"/>
</filter>
<filter id="filter23_d_322_1733" x="152.818" y="39.4922" width="19.171" height="22.5078" filterUnits="userSpaceOnUse" color-interpolation-filters="sRGB">
<feFlood flood-opacity="0" result="BackgroundImageFix"/>
<feColorMatrix in="SourceAlpha" type="matrix" values="0 0 0 0 0 0 0 0 0 0 0 0 0 0 0 0 0 0 127 0" result="hardAlpha"/>
<feOffset dy="4"/>
<feGaussianBlur stdDeviation="2"/>
<feComposite in2="hardAlpha" operator="out"/>
<feColorMatrix type="matrix" values="0 0 0 0 0 0 0 0 0 0 0 0 0 0 0 0 0 0 0.25 0"/>
<feBlend mode="normal" in2="BackgroundImageFix" result="effect1_dropShadow_322_1733"/>
<feBlend mode="normal" in="SourceGraphic" in2="effect1_dropShadow_322_1733" result="shape"/>
</filter>
<filter id="filter24_d_322_1733" x="136.119" y="39.4922" width="20" height="22.6321" filterUnits="userSpaceOnUse" color-interpolation-filters="sRGB">
<feFlood flood-opacity="0" result="BackgroundImageFix"/>
<feColorMatrix in="SourceAlpha" type="matrix" values="0 0 0 0 0 0 0 0 0 0 0 0 0 0 0 0 0 0 127 0" result="hardAlpha"/>
<feOffset dy="4"/>
<feGaussianBlur stdDeviation="2"/>
<feComposite in2="hardAlpha" operator="out"/>
<feColorMatrix type="matrix" values="0 0 0 0 0 0 0 0 0 0 0 0 0 0 0 0 0 0 0.25 0"/>
<feBlend mode="normal" in2="BackgroundImageFix" result="effect1_dropShadow_322_1733"/>
<feBlend mode="normal" in="SourceGraphic" in2="effect1_dropShadow_322_1733" result="shape"/>
</filter>
<filter id="filter25_d_322_1733" x="119.669" y="38.4558" width="12.9948" height="23.5439" filterUnits="userSpaceOnUse" color-interpolation-filters="sRGB">
<feFlood flood-opacity="0" result="BackgroundImageFix"/>
<feColorMatrix in="SourceAlpha" type="matrix" values="0 0 0 0 0 0 0 0 0 0 0 0 0 0 0 0 0 0 127 0" result="hardAlpha"/>
<feOffset dy="4"/>
<feGaussianBlur stdDeviation="2"/>
<feComposite in2="hardAlpha" operator="out"/>
<feColorMatrix type="matrix" values="0 0 0 0 0 0 0 0 0 0 0 0 0 0 0 0 0 0 0.25 0"/>
<feBlend mode="normal" in2="BackgroundImageFix" result="effect1_dropShadow_322_1733"/>
<feBlend mode="normal" in="SourceGraphic" in2="effect1_dropShadow_322_1733" result="shape"/>
</filter>
<filter id="filter26_d_322_1733" x="105.244" y="42.4558" width="18.592" height="19.71" filterUnits="userSpaceOnUse" color-interpolation-filters="sRGB">
<feFlood flood-opacity="0" result="BackgroundImageFix"/>
<feColorMatrix in="SourceAlpha" type="matrix" values="0 0 0 0 0 0 0 0 0 0 0 0 0 0 0 0 0 0 127 0" result="hardAlpha"/>
<feOffset dy="4"/>
<feGaussianBlur stdDeviation="2"/>
<feComposite in2="hardAlpha" operator="out"/>
<feColorMatrix type="matrix" values="0 0 0 0 0 0 0 0 0 0 0 0 0 0 0 0 0 0 0.25 0"/>
<feBlend mode="normal" in2="BackgroundImageFix" result="effect1_dropShadow_322_1733"/>
<feBlend mode="normal" in="SourceGraphic" in2="effect1_dropShadow_322_1733" result="shape"/>
</filter>
<filter id="filter27_d_322_1733" x="91.4038" y="42.6008" width="19.7927" height="19.3989" filterUnits="userSpaceOnUse" color-interpolation-filters="sRGB">
<feFlood flood-opacity="0" result="BackgroundImageFix"/>
<feColorMatrix in="SourceAlpha" type="matrix" values="0 0 0 0 0 0 0 0 0 0 0 0 0 0 0 0 0 0 127 0" result="hardAlpha"/>
<feOffset dy="4"/>
<feGaussianBlur stdDeviation="2"/>
<feComposite in2="hardAlpha" operator="out"/>
<feColorMatrix type="matrix" values="0 0 0 0 0 0 0 0 0 0 0 0 0 0 0 0 0 0 0.25 0"/>
<feBlend mode="normal" in2="BackgroundImageFix" result="effect1_dropShadow_322_1733"/>
<feBlend mode="normal" in="SourceGraphic" in2="effect1_dropShadow_322_1733" result="shape"/>
</filter>
<filter id="filter28_d_322_1733" x="78.5246" y="42.4558" width="18.592" height="19.71" filterUnits="userSpaceOnUse" color-interpolation-filters="sRGB">
<feFlood flood-opacity="0" result="BackgroundImageFix"/>
<feColorMatrix in="SourceAlpha" type="matrix" values="0 0 0 0 0 0 0 0 0 0 0 0 0 0 0 0 0 0 127 0" result="hardAlpha"/>
<feOffset dy="4"/>
<feGaussianBlur stdDeviation="2"/>
<feComposite in2="hardAlpha" operator="out"/>
<feColorMatrix type="matrix" values="0 0 0 0 0 0 0 0 0 0 0 0 0 0 0 0 0 0 0.25 0"/>
<feBlend mode="normal" in2="BackgroundImageFix" result="effect1_dropShadow_322_1733"/>
<feBlend mode="normal" in="SourceGraphic" in2="effect1_dropShadow_322_1733" result="shape"/>
</filter>
<filter id="filter29_d_322_1733" x="65.4307" y="39.4922" width="18.6114" height="22.5078" filterUnits="userSpaceOnUse" color-interpolation-filters="sRGB">
<feFlood flood-opacity="0" result="BackgroundImageFix"/>
<feColorMatrix in="SourceAlpha" type="matrix" values="0 0 0 0 0 0 0 0 0 0 0 0 0 0 0 0 0 0 127 0" result="hardAlpha"/>
<feOffset dy="4"/>
<feGaussianBlur stdDeviation="2"/>
<feComposite in2="hardAlpha" operator="out"/>
<feColorMatrix type="matrix" values="0 0 0 0 0 0 0 0 0 0 0 0 0 0 0 0 0 0 0.25 0"/>
<feBlend mode="normal" in2="BackgroundImageFix" result="effect1_dropShadow_322_1733"/>
<feBlend mode="normal" in="SourceGraphic" in2="effect1_dropShadow_322_1733" result="shape"/>
</filter>
</defs>
</svg>
